<svg xmlns="http://www.w3.org/2000/svg" xmlns:xlink="http://www.w3.org/1999/xlink" width="1889.896" height="1019.744" viewBox="0 0 1889.896 1019.744"><defs><style>.a{fill:url(#a);}</style><linearGradient id="a" x1="0.5" x2="0.5" y2="1" gradientUnits="objectBoundingBox"><stop offset="0" stop-color="#24cd98"/><stop offset="0.314" stop-color="#0efcb1"/><stop offset="0.908" stop-color="#1d916c"/><stop offset="1" stop-color="#12674c"/></linearGradient></defs><g transform="translate(0 0)"><g transform="translate(0 0)"><path class="a" d="M787.4,1019.744c-90.087,0-162.419-54.271-162.419-121.868V779.809h.066V632.022c0-25.231-6.338-48.066-17.744-69.688-2.539-6.014-6.338-10.815-10.147-16.821-1.27-1.206-2.529-3.61-3.8-4.808a215.319,215.319,0,0,0-16.485-18.027c-1.27-1.2-3.8-3.6-5.068-4.8-2.54-1.206-3.809-3.61-6.338-4.808-1.27-1.206-3.809-2.4-5.079-3.6a27.835,27.835,0,0,1-6.338-4.808c-2.529-1.206-3.8-2.4-6.338-3.6-3.8-2.4-7.608-4.808-12.676-6.014-5.068-2.4-10.147-4.8-15.215-6.006-1.27,0-2.54-1.2-3.8-1.2s-2.539-1.206-5.079-1.206-3.8-1.2-6.338-1.2c-3.8-1.206-6.338-1.206-10.136-2.4-1.27,0-3.809-1.2-5.079-1.2h-3.8a11.926,11.926,0,0,1-6.338-1.206H469.108c-1.259-3.6-3.8-3.6-6.338-3.6h267.5c90.01,0,162.277,68.49,162.277,153.793V779.809h.175V897.875c0,19.988,6.349,38.084,17.765,55.218,2.54,4.763,6.349,8.571,10.158,13.333,1.259.954,2.529,2.854,3.8,3.808a192.539,192.539,0,0,0,16.5,14.279c1.27.954,3.809,2.854,5.079,3.808,2.54.954,3.809,2.854,6.349,3.809,1.27.954,3.809,1.908,5.068,2.854a28.031,28.031,0,0,1,6.349,3.808c2.54.954,3.809,1.908,6.349,2.862,3.8,1.9,7.608,3.808,12.687,4.755a93.358,93.358,0,0,0,15.226,4.763c1.27,0,2.54.954,3.81.954s2.539.954,5.079.954,3.8.947,6.338.947c3.809.954,6.349.954,10.158,1.908,1.27,0,3.8.954,5.068.954h3.809a14.844,14.844,0,0,1,6.349.946H1048.8c1.27,1.908,3.809,1.908,6.349,1.908Zm-438.8-8.479c-98.592,0-177.732-84.509-177.732-189.777V637.639h1.292V162.218C172.161,52.409,145.989,16.226,0,0H286.472c97.793,0,176.3,71.13,176.3,159.723V637.639h1.073V821.487c0,31.139,6.94,59.308,19.44,86,2.769,7.411,6.94,13.341,11.1,20.751,1.39,1.481,2.78,4.45,4.171,5.93a252.3,252.3,0,0,0,18.05,22.24c1.39,1.488,4.171,4.449,5.55,5.93,2.78,1.488,4.17,4.449,6.951,5.93,1.379,1.488,4.159,2.969,5.55,4.449,2.78,1.48,5.55,4.449,6.94,5.93,2.78,1.481,4.171,2.969,6.94,4.449,4.17,2.969,8.341,5.93,13.891,7.411,5.55,2.969,11.11,5.93,16.66,7.418,1.39,0,2.78,1.48,4.17,1.48s2.769,1.481,5.55,1.481,4.17,1.481,6.94,1.481c4.17,1.488,6.951,1.488,11.11,2.969,1.39,0,4.171,1.48,5.55,1.48h4.171c2.78,0,4.17,0,6.94,1.481h11.111c1.39,2.969,4.17,2.969,6.94,2.969Zm1024.3-55.47c-66.782-22.392-126.756-54.454-178.258-95.293s-91.937-88.386-120.189-141.337c-29.237-54.821-44.069-113.053-44.069-173.079s14.832-118.258,44.069-173.079c28.252-52.951,68.687-100.506,120.189-141.345s111.475-72.893,178.258-95.293c69.136-23.186,142.585-34.939,218.288-34.939,106.1,0,209.388,23.6,298.709,68.253-301.238,16.172-537.2,181.5-537.2,376.4s235.965,360.239,537.193,376.4c-89.321,44.655-192.608,68.253-298.7,68.253C1515.483,990.742,1442.034,978.981,1372.9,955.795Z" transform="translate(0)"/></g></g></svg>