<svg xmlns="http://www.w3.org/2000/svg" xmlns:xlink="http://www.w3.org/1999/xlink" width="1554.882" height="1178" viewBox="0 0 1554.882 1178"><defs><style>.a{fill:#38f495;}.a,.c{stroke:#504f4b;}.a,.b,.c{stroke-miterlimit:10;stroke-width:30px;}.b,.c{fill:none;}.b{stroke:#38f495;}.d{filter:url(#g);}.e{filter:url(#e);}.f{filter:url(#c);}.g{filter:url(#a);}</style><filter id="a" x="0" y="221.867" width="1554.882" height="760.312" filterUnits="userSpaceOnUse"><feOffset dx="5" dy="5" input="SourceAlpha"/><feGaussianBlur stdDeviation="3" result="b"/><feFlood flood-opacity="0.161"/><feComposite operator="in" in2="b"/><feComposite in="SourceGraphic"/></filter><filter id="c" x="412.048" y="1130" width="731" height="48" filterUnits="userSpaceOnUse"><feOffset dx="5" dy="5" input="SourceAlpha"/><feGaussianBlur stdDeviation="3" result="d"/><feFlood flood-opacity="0.161"/><feComposite operator="in" in2="d"/><feComposite in="SourceGraphic"/></filter><filter id="e" x="249.048" y="0" width="408" height="887" filterUnits="userSpaceOnUse"><feOffset dx="5" dy="5" input="SourceAlpha"/><feGaussianBlur stdDeviation="3" result="f"/><feFlood flood-opacity="0.161"/><feComposite operator="in" in2="f"/><feComposite in="SourceGraphic"/></filter><filter id="g" x="883.935" y="7.012" width="402.442" height="914.721" filterUnits="userSpaceOnUse"><feOffset dx="5" dy="5" input="SourceAlpha"/><feGaussianBlur stdDeviation="3" result="h"/><feFlood flood-opacity="0.161"/><feComposite operator="in" in2="h"/><feComposite in="SourceGraphic"/></filter></defs><g transform="translate(-12132.952 8924)"><g transform="translate(12151.952 -8908.988)"><g class="g" transform="matrix(1, 0, 0, 1, -19, -15.01)"><path class="a" d="M1296.321,51h251.147V763.311H40.586V51H291.733" transform="translate(-21.59 189.87)"/></g><g class="f" transform="matrix(1, 0, 0, 1, -19, -15.01)"><line class="b" x2="713" transform="translate(416.05 1149)"/></g><path class="b" d="M52.586,273.536c97.9,0,182.041-87.544,182.041-195.536" transform="translate(378.663 860.167)"/><path class="b" d="M248.043,273.536C150.181,273.536,65.434,185.992,65.434,78" transform="translate(827.559 860.167)"/><g class="e" transform="matrix(1, 0, 0, 1, -19, -15.01)"><rect class="a" width="360" height="839" transform="translate(268.05 19)"/></g><line class="c" x2="139" transform="translate(249.048 164.988)"/><line class="c" x2="139" transform="translate(249.048 342.988)"/><line class="c" x2="139" transform="translate(249.048 639.988)"/><line class="c" x2="258" transform="translate(609.048 227.988)"/><g class="d" transform="matrix(1, 0, 0, 1, -19, -15.01)"><path class="a" d="M420.028,685.477,242.807,901.1,65.586,685.477V182.669C65.586,105.544,144.945,43,242.807,43c97.9,0,177.221,62.544,177.221,139.669Z" transform="translate(837.35 -16.99)"/></g><line class="c" x2="357" transform="translate(883.048 165.988)"/><line class="c" x2="359" transform="translate(882.048 598.988)"/><line class="c" x2="139" transform="translate(249.048 482.988)"/></g></g></svg>