<svg xmlns="http://www.w3.org/2000/svg" xmlns:xlink="http://www.w3.org/1999/xlink" width="1554.882" height="1181.988" viewBox="0 0 1554.882 1181.988"><defs><style>.a{fill:none;stroke:#38f495;stroke-miterlimit:10;stroke-width:30px;}.b{filter:url(#g);}.c{filter:url(#e);}.d{filter:url(#c);}.e{filter:url(#a);}</style><filter id="a" x="0" y="225.856" width="1554.882" height="760.312" filterUnits="userSpaceOnUse"><feOffset dx="5" dy="5" input="SourceAlpha"/><feGaussianBlur stdDeviation="3" result="b"/><feFlood flood-opacity="0.161"/><feComposite operator="in" in2="b"/><feComposite in="SourceGraphic"/></filter><filter id="c" x="412.048" y="1133.988" width="731" height="48" filterUnits="userSpaceOnUse"><feOffset dx="5" dy="5" input="SourceAlpha"/><feGaussianBlur stdDeviation="3" result="d"/><feFlood flood-opacity="0.161"/><feComposite operator="in" in2="d"/><feComposite in="SourceGraphic"/></filter><filter id="e" x="249.048" y="3.988" width="408" height="887" filterUnits="userSpaceOnUse"><feOffset dx="5" dy="5" input="SourceAlpha"/><feGaussianBlur stdDeviation="3" result="f"/><feFlood flood-opacity="0.161"/><feComposite operator="in" in2="f"/><feComposite in="SourceGraphic"/></filter><filter id="g" x="884.935" y="0" width="402.442" height="914.721" filterUnits="userSpaceOnUse"><feOffset dx="5" dy="5" input="SourceAlpha"/><feGaussianBlur stdDeviation="3" result="h"/><feFlood flood-opacity="0.161"/><feComposite operator="in" in2="h"/><feComposite in="SourceGraphic"/></filter></defs><g transform="translate(-12096.952 6921.988)"><g transform="translate(12115.952 -6902.988)"><g class="e" transform="matrix(1, 0, 0, 1, -19, -19)"><path class="a" d="M1296.321,51h251.147V763.311H40.586V51H291.733" transform="translate(-21.59 193.86)"/></g><g class="d" transform="matrix(1, 0, 0, 1, -19, -19)"><line class="a" x2="713" transform="translate(416.05 1152.99)"/></g><path class="a" d="M52.586,273.536c97.9,0,182.041-87.544,182.041-195.536" transform="translate(378.663 860.167)"/><path class="a" d="M248.043,273.536C150.181,273.536,65.434,185.992,65.434,78" transform="translate(827.559 860.167)"/><g class="c" transform="matrix(1, 0, 0, 1, -19, -19)"><rect class="a" width="360" height="839" transform="translate(268.05 22.99)"/></g><line class="a" x2="139" transform="translate(249.048 164.988)"/><line class="a" x2="139" transform="translate(249.048 342.988)"/><line class="a" x2="139" transform="translate(249.048 639.988)"/><line class="a" x2="258" transform="translate(609.048 227.988)"/><g class="b" transform="matrix(1, 0, 0, 1, -19, -19)"><path class="a" d="M420.028,685.477,242.807,901.1,65.586,685.477V182.669C65.586,105.544,144.945,43,242.807,43c97.9,0,177.221,62.544,177.221,139.669Z" transform="translate(838.35 -24)"/></g><line class="a" x2="357" transform="translate(884.048 163.988)"/><line class="a" x2="359" transform="translate(883.048 601.988)"/><line class="a" x2="139" transform="translate(249.048 482.988)"/></g></g></svg>