<svg xmlns="http://www.w3.org/2000/svg" xmlns:xlink="http://www.w3.org/1999/xlink" width="1662.066" height="1835.018" viewBox="0 0 1662.066 1835.018"><defs><style>.a{fill:#fff;stroke-width:30px;}.a,.b,.d,.f{stroke:#38f495;}.b,.c,.d{fill:#38f495;}.b{stroke-width:35px;}.d{stroke-width:20px;}.e,.h{fill:none;}.e{stroke:#504f4b;}.e,.f{stroke-linecap:round;stroke-linejoin:round;stroke-width:25px;}.f{fill:#504f4b;}.g{stroke:none;}.i{filter:url(#a);}</style><filter id="a" x="249.449" y="300.018" width="1125" height="975" filterUnits="userSpaceOnUse"><feOffset dx="5" dy="5" input="SourceAlpha"/><feGaussianBlur stdDeviation="3" result="b"/><feFlood flood-opacity="0.161"/><feComposite operator="in" in2="b"/><feComposite in="SourceGraphic"/></filter></defs><g transform="translate(-3649.348 7309.018)"><g transform="translate(621 -1639)"><g transform="translate(10 148)"><g transform="translate(2680.798 -3788)"><g transform="translate(1577.202 -190)"><g transform="translate(4 -5)"><path class="a" d="M0,0Z"/><g class="i" transform="matrix(1, 0, 0, 1, -1243.65, -1835.02)"><g class="b" transform="translate(253.45 304.02)"><ellipse class="g" cx="553.5" cy="478.5" rx="553.5" ry="478.5"/><ellipse class="h" cx="553.5" cy="478.5" rx="536" ry="461"/></g></g><g transform="translate(-1014 -309)"><g transform="translate(-235 -1504)"><path class="c" d="M633.093,1228.77l3.022-.03c50.939-.79,99.128-21.61,135.691-58.62a211.653,211.653,0,0,0,57.009-108.52l3.24-16.54,15.814-5.84c17.545-6.47,34.872-13.84,51.5-21.91l12.492-6.06,12.7,5.6c37.2,16.4,77.645,25.07,116.975,25.07a255.788,255.788,0,0,0,47.23-4.32c51.45-9.67,92.67-34.85,116.05-70.882,22.63-34.887,26.52-77.475,10.96-119.923-10.77-29.384-30.39-57.519-56.73-81.364l-13.81-12.508L1150.33,735a379.892,379.892,0,0,0,14.46-103.808c0-2.185-.02-4.38-.05-6.556l-.29-16.8,14.18-9.02c47.3-30.08,81.59-71.725,96.56-117.267,14.82-45.066,9.22-90.276-15.78-127.3-25.76-38.153-69.7-64.644-123.73-74.593a264.133,264.133,0,0,0-47.71-4.288,289.4,289.4,0,0,0-91,14.859L982.807,294.9l-12.282-8.464a552.389,552.389,0,0,0-111.38-58.992L841.717,220.6l-1.5-18.665c-3.73-46.287-25.1-89.366-60.169-121.3a197.327,197.327,0,0,0-263.96-.006c-32.912,29.975-53.994,70.266-59.361,113.45l-2.31,18.584L436.7,218.751a561.687,561.687,0,0,0-116.88,55.74L308.231,281.8l-13.113-3.977A271.116,271.116,0,0,0,216.4,266.007a249.431,249.431,0,0,0-46.154,4.254C119.151,279.9,77.5,305.212,52.979,341.52c-23.762,35.2-29.27,78.074-15.51,120.724,10.812,33.5,32.631,64.834,63.1,90.6l12.581,10.641-2.231,16.326A380.169,380.169,0,0,0,114.3,703.074l3.179,16.47-12.367,11.333c-28.386,26.014-49.178,56.364-60.129,87.77-15,43.02-10.308,85.164,13.22,118.669,24.386,34.727,66.768,57.823,119.338,65.034a259.13,259.13,0,0,0,35.386,2.37,297.832,297.832,0,0,0,90.732-14.5l12.99-4.154,11.671,7.057a560.293,560.293,0,0,0,87.831,42.994l15.5,5.99,3.145,16.32a213.815,213.815,0,0,0,63.26,115.86c37.223,35.13,85.181,54.48,135.038,54.48h0m0,30c-57.588,0-112.728-22.17-155.63-62.66a244.922,244.922,0,0,1-72.127-132,589.97,589.97,0,0,1-92.543-45.31,329.335,329.335,0,0,1-99.868,15.92,288.217,288.217,0,0,1-39.464-2.65c-60.931-8.36-110.582-35.888-139.812-77.513s-35.267-93.4-17-145.789c12.7-36.427,36.273-70.762,68.187-100.008a410.129,410.129,0,0,1-3.646-133.008c-34.54-29.212-59.666-65.221-72.276-104.3-16.654-51.619-9.834-103.721,19.2-146.722s77.535-72.814,136.568-83.954a279.029,279.029,0,0,1,51.717-4.774,301.892,301.892,0,0,1,87.427,13.106A591.155,591.155,0,0,1,426.953,190.38c6.266-50.414,30.492-96.92,68.932-131.93a227.324,227.324,0,0,1,304.354,0c40.766,37.119,65.533,87.153,69.877,141.074a582.032,582.032,0,0,1,117.432,62.211,320.766,320.766,0,0,1,100.422-16.376,293.73,293.73,0,0,1,53.15,4.784c62.01,11.421,112.85,42.429,143.15,87.308s37.21,99.382,19.42,153.463c-17.19,52.265-55.77,99.38-108.96,133.206.04,2.347.06,4.713.06,7.068a409.066,409.066,0,0,1-15.6,112c29.85,27.023,52.18,58.962,64.75,93.28,18.9,51.529,13.93,103.581-13.95,146.572s-76.08,72.837-135.67,84.047a286.288,286.288,0,0,1-52.78,4.83,321.76,321.76,0,0,1-129.078-27.62q-26.244,12.735-54.206,23.07a242.015,242.015,0,0,1-65.109,123.83c-42.117,42.64-97.714,66.63-156.566,67.54C635.421,1258.76,634.251,1258.77,633.093,1258.77Z" transform="translate(175.074 129.463)"/><g transform="matrix(0.515, 0.857, -0.857, 0.515, 1554.174, 256.447)"><g transform="matrix(0.875, -0.485, 0.485, 0.875, -45.736, 70.802)"><path class="c" d="M95.795,232.651c-22.319,0-42.69-8.722-57.362-24.56-17.1-18.462-25.3-44.621-23.078-73.658C20.025,73.385,69.081,19.949,124.709,15.316c2.541-.212,5.057-.316,7.533-.316,22.318,0,42.69,8.722,57.362,24.56,17.1,18.462,25.3,44.621,23.078,73.658-4.671,61.048-53.727,114.483-109.354,119.116C100.787,232.546,98.271,232.651,95.795,232.651Z"/><path class="c" d="M132.242,30c-2.067,0-4.167.088-6.288.265-47.781,3.979-91.58,52.206-95.643,105.312-1.9,24.825,4.893,46.957,19.125,62.32,11.972,12.923,28,19.754,46.359,19.754,2.067,0,4.167-.088,6.288-.265,47.78-3.979,91.58-52.206,95.643-105.312,1.9-24.825-4.893-46.957-19.126-62.32C166.628,36.831,150.6,30,132.242,30m0-30c58.265,0,100.367,49.4,95.4,114.362-5.216,68.184-60.315,127.694-123.065,132.921-2.961.246-5.893.368-8.778.368-58.266,0-100.367-49.4-95.4-114.363C5.615,65.1,60.713,5.594,123.464.368,126.424.122,129.356,0,132.242,0Z"/></g></g><g transform="matrix(-0.829, 0.559, -0.559, -0.829, 1560.848, 1167.659)"><path class="c" d="M124.718,226.649c-2.2,0-4.427-.091-6.685-.276C65.854,222.1,19.788,170.3,15.342,110.906c-2.17-28.995,5.891-54.938,22.7-73.051C51.916,22.9,70.18,15,90.86,15c2.2,0,4.428.091,6.686.276,52.178,4.275,98.245,56.073,102.69,115.467,2.17,29-5.892,54.938-22.7,73.051C163.662,218.746,145.4,226.649,124.718,226.649Z"/><path class="c" d="M90.86,30A55.645,55.645,0,0,0,49.037,48.058C35.1,63.078,28.445,85,30.3,109.786c3.851,51.458,44.589,98,88.957,101.637,1.845.151,3.662.226,5.461.226a55.642,55.642,0,0,0,41.823-18.058c13.938-15.02,20.592-36.942,18.737-61.728-3.852-51.458-44.589-98-88.957-101.637C94.476,30.075,92.66,30,90.86,30m0-30C93.467,0,96.1.107,98.77.326c59.319,4.86,111.443,62.748,116.424,129.3,4.757,63.551-35.208,112.025-90.476,112.025-2.606,0-5.238-.107-7.91-.326C57.49,236.463,5.365,178.574.384,112.025-4.372,48.473,35.592,0,90.86,0Z"/></g><g transform="matrix(-0.53, -0.848, 0.848, -0.53, 114.938, 1203.538)"><path class="c" d="M89.744,232.676a68.186,68.186,0,0,1-51.253-22.407c-17.024-18.4-25.442-46.191-23.1-76.233C20.167,72.942,66.272,19.669,118.173,15.282Q121.52,15,124.785,15a68.186,68.186,0,0,1,51.253,22.408c17.024,18.4,25.442,46.191,23.1,76.232-4.771,61.094-50.877,114.367-102.778,118.754Q93.01,232.677,89.744,232.676Z" transform="translate(-78.383 25.678) rotate(-21)"/><path class="c" d="M124.785,30q-2.64,0-5.349.229C75.3,33.96,34.5,82.032,30.35,135.2c-2.022,25.887,4.959,49.534,19.153,64.879a53.534,53.534,0,0,0,40.241,17.593q2.64,0,5.349-.228c44.137-3.731,84.934-51.8,89.086-104.976,2.022-25.886-4.959-49.534-19.153-64.879A53.534,53.534,0,0,0,124.785,30m0-30c54.943,0,94.39,49.672,89.3,114.808-5.327,68.209-57.471,127.546-116.468,132.533q-3.986.337-7.876.335C34.8,247.676-4.645,198,.441,132.868,5.768,64.659,57.912,5.322,116.909.335Q120.9,0,124.785,0Z" transform="translate(-78.383 25.678) rotate(-21)"/></g><g transform="translate(705.839 1482.085) rotate(-90)"><path class="c" d="M130.442,203.035h-.6C66.811,202.764,15.3,160.3,15,108.38c-.122-21.6,8.927-42.662,25.48-59.31C62.012,27.418,93.863,15,127.868,15c63.632.271,115.147,42.733,115.441,94.655.123,21.6-8.927,42.662-25.48,59.31C196.3,190.617,164.448,203.035,130.442,203.035Z"/><path class="c" d="M127.868,0V30c-30.041,0-58.015,10.806-76.75,29.647C41.414,69.406,29.873,85.768,30,108.295c.248,43.733,45.063,79.5,100.441,79.74,30.041,0,58.015-10.806,76.75-29.647,9.7-9.759,21.245-26.121,21.117-48.648-.248-43.733-45.063-79.5-99.9-79.739l-.537-30m0,0h.669c71.33.305,129.431,49.361,129.772,109.569.34,60.017-56.852,108.465-127.867,108.465h-.669C58.444,217.728.343,168.673,0,108.465-.339,48.448,56.853,0,127.868,0Z"/></g><g transform="translate(5.348 357.269) rotate(-28)"><path class="c" d="M126.683,219.9q-3.579,0-7.249-.3c-53-4.414-99.7-54.818-104.1-112.357-2.073-27.1,5.616-51.554,21.652-68.864C50.948,23.3,70.408,15,91.778,15q3.579,0,7.249.3c53,4.414,99.7,54.818,104.1,112.358,2.074,27.1-5.616,51.554-21.652,68.863C167.513,211.6,148.053,219.9,126.683,219.9Z"/><path class="c" d="M91.778,30c-17.394,0-32.536,6.422-43.792,18.571-13.165,14.21-19.45,34.64-17.7,57.525,3.8,49.657,45.194,94.789,90.392,98.554q3.043.254,6,.252c17.393,0,32.536-6.421,43.792-18.571,13.164-14.21,19.45-34.64,17.7-57.525-3.8-49.657-45.194-94.789-90.393-98.553q-3.042-.253-6-.253m0-30q4.193,0,8.494.356c60.119,5.007,112.867,61.491,117.815,126.161C222.8,188.1,182.459,234.9,126.683,234.9q-4.194,0-8.494-.356C58.069,229.539,5.322,173.055.374,108.385-4.338,46.8,36,0,91.778,0Z"/></g><g transform="translate(931.903 -22.018) rotate(90)"><g class="d" transform="translate(0 0)"><ellipse class="g" cx="124.597" cy="102.579" rx="124.597" ry="102.579"/><ellipse class="h" cx="124.597" cy="102.579" rx="114.597" ry="92.579"/></g></g></g><g transform="translate(446.6 -932.997)"><path class="e" d="M0,0H297.4V260.537H0Z" transform="translate(27.847)"/><path class="e" d="M27.593,0C13.051,10.307,5.835,17.945,2.108,25.715-9.03,48.859,27.593,57.366,27.593,57.366H322.381c5.726,0-28.618-29.745,0-57.366" transform="translate(0 260.538)"/><path class="e" d="M0,295.087V34.17l3.911-9.9,7.119-8.914,8.286-8.418L28.208,0" transform="translate(0 0.11)"/><rect class="f" width="142.397" height="87.925" rx="29" transform="translate(105.166 86.475)"/></g></g></g></g></g></g></g></g></svg>