<svg xmlns="http://www.w3.org/2000/svg" xmlns:xlink="http://www.w3.org/1999/xlink" width="1810.92" height="1440.54" viewBox="0 0 1810.92 1440.54">
  <defs>
    <style>
      .cls-1 {
        fill: rgba(245,248,246,0);
        stroke-linecap: round;
      }

      .cls-2, .cls-3 {
        stroke: none;
      }

      .cls-3 {
        fill: #38f495;
      }

      .cls-4 {
        filter: url(#Union_9);
      }
    </style>
    <filter id="Union_9" x="0" y="0" width="1810.92" height="1440.54" filterUnits="userSpaceOnUse">
      <feOffset dx="5" dy="5" input="SourceAlpha"/>
      <feGaussianBlur stdDeviation="3" result="blur"/>
      <feFlood flood-opacity="0.161"/>
      <feComposite operator="in" in2="blur"/>
      <feComposite in="SourceGraphic"/>
    </filter>
  </defs>
  <g id="Group_647" data-name="Group 647" transform="translate(-920.546 3586.109)">
    <g class="cls-4" transform="matrix(1, 0, 0, 1, 920.55, -3586.11)">
      <g id="Union_9-2" data-name="Union 9" class="cls-1" transform="translate(5.5 4.81)">
        <path class="cls-2" d="M 1492.0458984375 1381.7265625 L 1112.881958007813 1381.7265625 L 1112.881958007813 908.2405395507813 L 1112.881958007813 868.2405395507813 L 1072.881958007813 868.2405395507813 L 717.0308837890625 868.2405395507813 L 677.0308837890625 868.2405395507813 L 677.0308837890625 908.2405395507813 L 677.0308837890625 1381.7265625 L 297.8680114746094 1381.7265625 L 297.8680114746094 745.8120727539063 L 297.8680114746094 705.8120727539063 L 257.8680114746094 705.8120727539063 L 94.12384796142578 705.8120727539063 L 894.956787109375 48.29633712768555 L 1695.7890625 705.8120727539063 L 1532.0458984375 705.8120727539063 L 1492.0458984375 705.8120727539063 L 1492.0458984375 745.8120727539063 L 1492.0458984375 1381.7265625 Z"/>
        <path class="cls-3" d="M 1452.045776367188 1341.726440429688 L 1452.045776367188 745.81201171875 L 1452.045776367188 665.81201171875 L 1532.045776367188 665.81201171875 L 1584.034545898438 665.81201171875 L 894.956787109375 100.0513305664063 L 205.8783569335938 665.81201171875 L 257.8679809570313 665.81201171875 L 337.8679809570313 665.81201171875 L 337.8679809570313 745.81201171875 L 337.8679809570313 1341.726440429688 L 637.0311279296875 1341.726440429688 L 637.0311279296875 908.240478515625 L 637.0311279296875 828.240478515625 L 717.0311279296875 828.240478515625 L 1072.882080078125 828.240478515625 L 1152.882080078125 828.240478515625 L 1152.882080078125 908.240478515625 L 1152.882080078125 1341.726440429688 L 1452.045776367188 1341.726440429688 M 1516.045532226563 1421.726440429688 L 1088.882080078125 1421.726440429688 C 1080.045776367188 1421.726440429688 1072.882080078125 1414.563232421875 1072.882080078125 1405.72607421875 L 1072.882080078125 908.240478515625 L 717.0311279296875 908.240478515625 L 717.0311279296875 1405.72607421875 C 717.0311279296875 1414.563232421875 709.86767578125 1421.726440429688 701.0308227539063 1421.726440429688 L 273.8673706054688 1421.726440429688 C 265.0310974121094 1421.726440429688 257.8679809570313 1414.563232421875 257.8679809570313 1405.72607421875 L 257.8679809570313 745.81201171875 L 7.515171051025391 745.81201171875 C -0.9360790848731995 745.81201171875 -4.727641582489014 735.21826171875 1.803608417510986 729.8557739257813 L 889.2457885742188 1.230471134185791 C 890.9054565429688 -0.1321850568056107 892.9309692382813 -0.8135131597518921 894.95654296875 -0.8135131597518921 C 896.9821166992188 -0.8135131597518921 899.0078125 -0.1321850568056107 900.66796875 1.230471134185791 L 1788.109252929688 729.8557739257813 C 1794.640502929688 735.21826171875 1790.848876953125 745.81201171875 1782.39892578125 745.81201171875 L 1532.045776367188 745.81201171875 L 1532.045776367188 1405.72607421875 C 1532.045776367188 1414.563232421875 1524.881713867188 1421.726440429688 1516.045532226563 1421.726440429688 Z"/>
      </g>
    </g>
  </g>
</svg>
