<?xml version="1.0" encoding="utf-8"?><svg xmlSpace="preserve" viewBox="0 0 100 100" y="0" x="0" xmlns="http://www.w3.org/2000/svg" id="Layer_1" version="1.1" width="200px" height="200px" xmlns:xlink="http://www.w3.org/1999/xlink" style="width:100%;height:100%;background-size:initial;background-repeat-y:initial;background-repeat-x:initial;background-position-y:initial;background-position-x:initial;background-origin:initial;background-color:initial;background-clip:initial;background-attachment:initial;animation-play-state:paused" ><g class="ldl-scale" style="transform-origin:50% 50%;transform:rotate(0deg) scale(0.8, 0.8);animation-play-state:paused" ><path d="M50 17.903v31.733" stroke-width="3.5" stroke="#333" fill="none" stroke-miterlimit="10" style="stroke:rgb(56, 244, 149);animation-play-state:paused" ></path>
<circle stroke-miterlimit="10" stroke="#333" fill="#e15c64" stroke-width="3.5" r="7.903" cy="17.903" cx="50" style="stroke:rgb(56, 244, 149);fill:rgb(141, 250, 195);animation-play-state:paused" ></circle>
<path stroke="#333" fill="#666766" stroke-miterlimit="10" stroke-width="3.5" d="M78.857 78.057h-1.023a6.69 6.69 0 0 1-6.69-6.69V57.366a6.69 6.69 0 0 1 6.69-6.69h1.023a6.69 6.69 0 0 1 6.69 6.69v14.002a6.69 6.69 0 0 1-6.69 6.689z" style="stroke:rgb(56, 244, 149);fill:rgb(56, 244, 149);animation-play-state:paused" ></path>
<path stroke="#333" fill="#666766" stroke-miterlimit="10" stroke-width="3.5" d="M21.143 78.057h1.023a6.69 6.69 0 0 0 6.69-6.69V57.366a6.69 6.69 0 0 0-6.69-6.69h-1.023a6.69 6.69 0 0 0-6.69 6.69v14.002a6.69 6.69 0 0 0 6.69 6.689z" style="stroke:rgb(56, 244, 149);fill:rgb(56, 244, 149);animation-play-state:paused" ></path>
<path stroke-miterlimit="10" stroke-width="3.5" stroke="#333" fill="#e0e0e0" d="M71.646 90H28.354a5.133 5.133 0 0 1-5.133-5.133V41.399a5.133 5.133 0 0 1 5.133-5.133h43.293a5.133 5.133 0 0 1 5.133 5.133v43.468A5.134 5.134 0 0 1 71.646 90z" style="stroke:rgb(56, 244, 149);fill:rgb(1, 22, 39);animation-play-state:paused" ></path>
<path stroke-miterlimit="10" stroke="#333" fill="#fff" stroke-width="3.5" d="M37.944 69.948a6.057 6.057 0 0 0-6.057 6.057v0a6.057 6.057 0 0 0 6.057 6.057h1.658V69.948h-1.658z" style="stroke:rgb(56, 244, 149);fill:rgb(1, 22, 39);animation-play-state:paused" ></path>
<path d="M39.602 69.948h6.932v12.115h-6.932z" stroke-miterlimit="10" stroke="#333" fill="#fff" stroke-width="3.5" style="stroke:rgb(56, 244, 149);fill:rgb(1, 22, 39);animation-play-state:paused" ></path>
<path d="M46.534 69.948h6.932v12.115h-6.932z" stroke-miterlimit="10" stroke="#333" fill="#fff" stroke-width="3.5" style="stroke:rgb(56, 244, 149);fill:rgb(1, 22, 39);animation-play-state:paused" ></path>
<path stroke-miterlimit="10" stroke="#333" fill="#fff" stroke-width="3.5" d="M62.056 69.948h-1.658v12.115h1.658a6.057 6.057 0 0 0 6.057-6.057v0a6.057 6.057 0 0 0-6.057-6.058z" style="stroke:rgb(56, 244, 149);fill:rgb(1, 22, 39);animation-play-state:paused" ></path>
<path d="M53.466 69.948h6.932v12.115h-6.932z" stroke-miterlimit="10" stroke="#333" fill="#fff" stroke-width="3.5" style="stroke:rgb(56, 244, 149);fill:rgb(1, 22, 39);animation-play-state:paused" ></path>
<circle stroke-width="3.5" stroke="#333" fill="#acbd81" stroke-miterlimit="10" r="5.942" cy="53.343" cx="37.829" style="stroke:rgb(56, 244, 149);fill:rgb(1, 22, 39);animation-play-state:paused" ></circle>
<circle stroke-width="3.5" stroke="#333" fill="#acbd81" stroke-miterlimit="10" r="5.942" cy="53.343" cx="62.171" style="stroke:rgb(56, 244, 149);fill:rgb(1, 22, 39);animation-play-state:paused" ></circle>
<metadata xmlnsD="https://loading.io/stock/" style="animation-play-state:paused" ><dName style="animation-play-state:paused" >robot</dName>


<dTags style="animation-play-state:paused" >robot,chatbot,android,turing test,cyborg,ai,artificial intelligence,machine learning</dTags>


<dLicense style="animation-play-state:paused" >by</dLicense>


<dSlug style="animation-play-state:paused" >6jj3nx</dSlug></metadata></g><!-- generated by https://loading.io/ --></svg>