<svg xmlns="http://www.w3.org/2000/svg" xmlns:xlink="http://www.w3.org/1999/xlink" width="1647.111" height="1293.512" viewBox="0 0 1647.111 1293.512"><defs><style>.a,.b,.d{fill:#38f495;}.b{stroke:#38f495;stroke-width:30px;}.c,.d{stroke:none;}.e{fill:none;}.f{filter:url(#s);}.g{filter:url(#q);}.h{filter:url(#o);}.i{filter:url(#m);}.j{filter:url(#k);}.k{filter:url(#i);}.l{filter:url(#g);}.m{filter:url(#e);}.n{filter:url(#c);}.o{filter:url(#a);}</style><filter id="a" x="801.277" y="271.508" width="685.46" height="763.507" filterUnits="userSpaceOnUse"><feOffset dx="5" dy="5" input="SourceAlpha"/><feGaussianBlur stdDeviation="3" result="b"/><feFlood flood-opacity="0.161"/><feComposite operator="in" in2="b"/><feComposite in="SourceGraphic"/></filter><filter id="c" x="1111.781" y="824.181" width="435.98" height="292.905" filterUnits="userSpaceOnUse"><feOffset dx="5" dy="5" input="SourceAlpha"/><feGaussianBlur stdDeviation="3" result="d"/><feFlood flood-opacity="0.161"/><feComposite operator="in" in2="d"/><feComposite in="SourceGraphic"/></filter><filter id="e" x="1172.805" y="925.68" width="474.307" height="367.832" filterUnits="userSpaceOnUse"><feOffset dx="5" dy="5" input="SourceAlpha"/><feGaussianBlur stdDeviation="3" result="f"/><feFlood flood-opacity="0.161"/><feComposite operator="in" in2="f"/><feComposite in="SourceGraphic"/></filter><filter id="g" x="759.997" y="224.923" width="416.237" height="255.663" filterUnits="userSpaceOnUse"><feOffset dx="5" dy="5" input="SourceAlpha"/><feGaussianBlur stdDeviation="3" result="h"/><feFlood flood-opacity="0.161"/><feComposite operator="in" in2="h"/><feComposite in="SourceGraphic"/></filter><filter id="i" x="689.363" y="98.358" width="445.59" height="313.662" filterUnits="userSpaceOnUse"><feOffset dx="5" dy="5" input="SourceAlpha"/><feGaussianBlur stdDeviation="3" result="j"/><feFlood flood-opacity="0.161"/><feComposite operator="in" in2="j"/><feComposite in="SourceGraphic"/></filter><filter id="k" x="0" y="279" width="336" height="656" filterUnits="userSpaceOnUse"><feOffset dx="5" dy="5" input="SourceAlpha"/><feGaussianBlur stdDeviation="3" result="l"/><feFlood flood-opacity="0.161"/><feComposite operator="in" in2="l"/><feComposite in="SourceGraphic"/></filter><filter id="m" x="0" y="946" width="336" height="91" filterUnits="userSpaceOnUse"><feOffset dx="5" dy="5" input="SourceAlpha"/><feGaussianBlur stdDeviation="3" result="n"/><feFlood flood-opacity="0.161"/><feComposite operator="in" in2="n"/><feComposite in="SourceGraphic"/></filter><filter id="o" x="0" y="1048" width="336" height="174" filterUnits="userSpaceOnUse"><feOffset dx="5" dy="5" input="SourceAlpha"/><feGaussianBlur stdDeviation="3" result="p"/><feFlood flood-opacity="0.161"/><feComposite operator="in" in2="p"/><feComposite in="SourceGraphic"/></filter><filter id="q" x="0" y="143" width="336" height="130" filterUnits="userSpaceOnUse"><feOffset dx="5" dy="5" input="SourceAlpha"/><feGaussianBlur stdDeviation="3" result="r"/><feFlood flood-opacity="0.161"/><feComposite operator="in" in2="r"/><feComposite in="SourceGraphic"/></filter><filter id="s" x="366.999" y="0" width="340.001" height="1222.001" filterUnits="userSpaceOnUse"><feOffset dx="5" dy="5" input="SourceAlpha"/><feGaussianBlur stdDeviation="3" result="t"/><feFlood flood-opacity="0.161"/><feComposite operator="in" in2="t"/><feComposite in="SourceGraphic"/></filter></defs><g transform="translate(-9510 2036)"><g transform="translate(-41 -9)"><g class="o" transform="matrix(1, 0, 0, 1, 9551, -2027)"><g class="a" transform="matrix(0.91, -0.41, 0.41, 0.91, 805.28, 461.83)"><path class="c" d="M 441.1605834960938 595.4669189453125 L 77.52446746826172 561.7948608398438 L 16.94070625305176 16.63289833068848 L 380.576904296875 50.30514526367188 L 441.1605834960938 595.4669189453125 Z"/><path class="d" d="M 33.8814697265625 33.2657470703125 L 91.08218383789063 547.9860229492188 L 424.2198181152344 578.8340454101563 L 367.0191040039063 64.1138916015625 L 33.8814697265625 33.2657470703125 M -3.0517578125e-05 0 L 394.1346435546875 36.49639892578125 L 458.101318359375 612.0997314453125 L 63.96664428710938 575.603515625 L -3.0517578125e-05 0 Z"/></g></g><g class="n" transform="matrix(1, 0, 0, 1, 9551, -2027)"><g class="a" transform="matrix(0.91, -0.41, 0.41, 0.91, 1115.78, 992.32)"><path class="c" d="M 386.6123657226563 104.6148529052734 L 22.97616386413574 70.94263458251953 L 16.94073867797852 16.63290214538574 L 380.5769348144531 50.30517959594727 L 386.6123657226563 104.6148529052734 Z"/><path class="d" d="M 33.88140869140625 33.26565551757813 L 36.53390502929688 57.13401031494141 L 369.6716003417969 87.98204040527344 L 367.0191040039063 64.11381530761719 L 33.88140869140625 33.26565551757813 M -3.0517578125e-05 -4.57763671875e-05 L 394.1346435546875 36.49637603759766 L 403.5530395507813 121.2477111816406 L 9.41839599609375 84.75145721435547 L -3.0517578125e-05 -4.57763671875e-05 Z"/></g></g><g class="m" transform="matrix(1, 0, 0, 1, 9551, -2027)"><g class="a" transform="matrix(0.91, -0.41, 0.41, 0.91, 1176.8, 1096.58)"><path class="c" d="M 389.9764099121094 185.2456665039063 C 389.5048828125 185.2456665039063 389.0245666503906 185.22265625 388.5340270996094 185.1772003173828 L 45.25548553466797 153.3900604248047 C 37.28815460205078 152.6523284912109 31.3978214263916 146.7242584228516 30.99802017211914 143.1269989013672 L 16.94074440002441 16.63289070129395 L 380.5769348144531 50.30516815185547 L 395.3162841796875 182.9368591308594 C 394.6784057617188 184.3015899658203 393.0210876464844 185.2456665039063 389.9764099121094 185.2456665039063 Z"/><path class="d" d="M 33.88143920898438 33.26571655273438 L 45.535888671875 138.1381683349609 C 45.890625 138.2965698242188 46.28207397460938 138.4209899902344 46.63858032226563 138.4540252685547 L 378.6974792480469 169.2013244628906 L 367.0191345214844 64.11381530761719 L 33.88143920898438 33.26571655273438 M 0 3.0517578125e-05 L 394.1346740722656 36.49636840820313 L 410.2244262695313 181.2801208496094 C 411.4359436035156 192.1818542480469 402.5523376464844 200.2456665039063 389.9762573242188 200.2456665039063 C 389.053466796875 200.2456665039063 388.1109313964844 200.2022552490234 387.1509094238281 200.1133575439453 L 43.87240600585938 168.3262023925781 C 29.82882690429688 167.0257873535156 17.39016723632813 156.4853668212891 16.08975219726563 144.78369140625 L 0 3.0517578125e-05 Z"/></g></g><g class="l" transform="matrix(1, 0, 0, 1, 9551, -2027)"><g class="a" transform="matrix(0.91, -0.41, 0.41, 0.91, 764, 391.31)"><path class="c" d="M 382.2955017089844 65.77056121826172 L 18.65937805175781 32.09821319580078 L 16.94072914123535 16.63287734985352 L 380.576904296875 50.30515289306641 L 382.2955017089844 65.77056121826172 Z"/><path class="d" d="M 0 -3.0517578125e-05 L 394.1346740722656 36.49638366699219 L 399.2361755371094 82.40346527099609 L 5.1016845703125 45.90696716308594 L 0 -3.0517578125e-05 Z"/></g></g><g class="k" transform="matrix(1, 0, 0, 1, 9551, -2027)"><g class="a" transform="matrix(0.91, -0.41, 0.41, 0.91, 693.36, 266.7)"><path class="c" d="M 387.1152038574219 127.1117935180664 L 23.47907447814941 93.43952178955078 L 15.0186653137207 17.30882453918457 C 15.65653228759766 15.94402503967285 17.31379890441895 14.99995899200439 20.35846519470215 14.99995899200439 C 20.82999801635742 14.99995899200439 21.31033134460449 15.02295875549316 21.80086517333984 15.06842517852783 L 365.0794067382813 46.85562515258789 C 373.0467834472656 47.59335708618164 378.9370727539063 53.52135848999023 379.3367919921875 57.11862564086914 L 387.1152038574219 127.1117935180664 Z"/><path class="d" d="M 31.63735961914063 31.04337310791016 L 37.036865234375 79.63084411621094 L 370.1744689941406 110.4790191650391 L 364.7989501953125 62.10750579833984 C 364.4441833496094 61.94905853271484 364.0527648925781 61.82466888427734 363.6962585449219 61.7916259765625 L 31.63735961914063 31.04337310791016 M 20.35842895507813 -1.52587890625e-05 C 21.28201293945313 -1.52587890625e-05 22.22305297851563 0.0433197021484375 23.18392944335938 0.132293701171875 L 366.46240234375 31.91945648193359 C 380.5059204101563 33.21987152099609 392.9446716308594 43.76020812988281 394.2450866699219 55.46195983886719 L 404.055908203125 143.7447052001953 L 9.92132568359375 107.248291015625 L 0.110504150390625 18.96554565429688 C -1.1009521484375 8.06451416015625 7.78363037109375 -1.52587890625e-05 20.35842895507813 -1.52587890625e-05 Z"/></g></g><g class="j" transform="matrix(1, 0, 0, 1, 9551, -2027)"><g class="b" transform="translate(4 283)"><rect class="c" width="318" height="638"/><rect class="e" x="15" y="15" width="288" height="608"/></g></g><g class="i" transform="matrix(1, 0, 0, 1, 9551, -2027)"><g class="b" transform="translate(4 950)"><rect class="c" width="318" height="73"/><rect class="e" x="15" y="15" width="288" height="43"/></g></g><g class="h" transform="matrix(1, 0, 0, 1, 9551, -2027)"><g class="b" transform="translate(4 1052)"><path class="c" d="M1,0H317a1,1,0,0,1,1,1V126a30,30,0,0,1-30,30H30A30,30,0,0,1,0,126V1A1,1,0,0,1,1,0Z"/><path class="e" d="M29,15H289a14,14,0,0,1,14,14v97a15,15,0,0,1-15,15H30a15,15,0,0,1-15-15V29A14,14,0,0,1,29,15Z"/></g></g><g class="g" transform="matrix(1, 0, 0, 1, 9551, -2027)"><g class="b" transform="translate(4 147)"><path class="c" d="M30,0H288a30,30,0,0,1,30,30v82a0,0,0,0,1,0,0H0a0,0,0,0,1,0,0V30A30,30,0,0,1,30,0Z"/><rect class="e" x="15" y="15" width="288" height="82" rx="15"/></g></g><g class="f" transform="matrix(1, 0, 0, 1, 9551, -2027)"><g class="a" transform="translate(371 4)"><path class="c" d="M 291.9988403320313 1189.001342773438 L 29.99966430664063 1189.001342773438 C 27.96866416931152 1189.001342773438 26.00599670410156 1188.606811523438 24.16633033752441 1187.828491210938 C 22.3813304901123 1187.07373046875 20.77566337585449 1185.989990234375 19.39299774169922 1184.607299804688 C 18.01066398620605 1183.224975585938 16.92666435241699 1181.618896484375 16.17166519165039 1179.834228515625 C 15.39366436004639 1177.994506835938 14.99899768829346 1176.031372070313 14.99899768829346 1173.999633789063 L 14.99899768829346 1062.9990234375 L 307.0003356933594 1062.998901367188 L 307.0003356933594 1173.999633789063 C 307.0003356933594 1176.031616210938 306.6058349609375 1177.994873046875 305.8276672363281 1179.83447265625 C 305.0726623535156 1181.61962890625 303.9889831542969 1183.225708007813 302.6065063476563 1184.6083984375 C 301.2248229980469 1185.989868164063 299.6188354492188 1187.07373046875 297.8345031738281 1187.828125 C 295.9939880371094 1188.606689453125 294.0308227539063 1189.001342773438 291.9988403320313 1189.001342773438 Z M 307.0003356933594 1006.001586914063 L 14.99899768829346 1006.000549316406 L 14.99899768829346 962.9998168945313 L 307.0003356933594 962.9998168945313 L 307.0003356933594 1006.001586914063 Z M 307.0003356933594 903.9999389648438 L 14.99899768829346 903.9990234375 L 14.99899768829346 249 L 307.0003356933594 249 L 307.0003356933594 903.9999389648438 Z M 87.00032806396484 276.9996643066406 C 61.635498046875 276.9996643066406 40.99983215332031 297.6353454589844 40.99983215332031 323 L 40.99983215332031 465.0001831054688 C 40.99983215332031 490.364501953125 61.635498046875 510.9998474121094 87.00032806396484 510.9998474121094 L 235 510.9998474121094 C 260.3648376464844 510.9998474121094 281.00048828125 490.364501953125 281.00048828125 465.0001831054688 L 281.00048828125 323 C 281.00048828125 297.6353454589844 260.3648376464844 276.9996643066406 235 276.9996643066406 L 87.00032806396484 276.9996643066406 Z M 307.0003356933594 192.0027923583984 L 14.99899768829346 192.0018920898438 L 14.99899768829346 141.0010070800781 L 307.0003356933594 141.0010070800781 L 307.0003356933594 192.0027923583984 Z M 307.0003356933594 92.00111389160156 L 14.99899768829346 92.00006103515625 L 14.99899768829346 28.99883842468262 C 14.99899768829346 27.10283851623535 15.36716461181641 25.27100563049316 16.09333038330078 23.55450439453125 C 16.7974967956543 21.88933753967285 17.80899810791016 20.39100456237793 19.09949684143066 19.10067176818848 C 20.39016342163086 17.81000518798828 21.88916397094727 16.79850387573242 23.55466461181641 16.09417152404785 C 25.27116394042969 15.36817169189453 27.10333061218262 15.00000476837158 28.99983024597168 15.00000476837158 L 292.9986572265625 15.00000476837158 C 294.89599609375 15.00000476837158 296.72900390625 15.36817169189453 298.4463195800781 16.09450531005859 C 300.1109924316406 16.79850387573242 301.6099853515625 17.81000518798828 302.9006652832031 19.10067176818848 C 304.190673828125 20.39050483703613 305.2021789550781 21.8891716003418 305.9066772460938 23.55483818054199 C 306.6321716308594 25.27017211914063 307.0003356933594 27.10217094421387 307.0003356933594 28.99883842468262 L 307.0003356933594 92.00111389160156 Z"/><path class="d" d="M 291.9987487792969 1174.001342773438 L 292.0002136230469 1173.999633789063 L 292.0002136230469 1077.998901367188 L 29.99924850463867 1077.9990234375 L 29.99966430664063 1174.001342773438 L 291.9987487792969 1174.001342773438 M 292.0002136230469 991.00146484375 L 292.0002136230469 977.999755859375 L 29.99911880493164 977.999755859375 L 29.99911880493164 991.0006103515625 L 292.0002136230469 991.00146484375 M 292.0002136230469 889 L 292.0002136230469 486.7334594726563 C 283.2257385253906 509.6702270507813 260.9842834472656 525.9999389648438 235.0000305175781 525.9999389648438 L 87.00020599365234 525.9999389648438 C 61.01594161987305 525.9999389648438 38.77359390258789 509.6678466796875 29.99911880493164 486.7310791015625 L 29.99911880493164 888.9991455078125 L 292.0002136230469 889 M 29.99911880493164 301.26904296875 C 36.96282577514648 283.0653991699219 52.41138458251953 269.0208129882813 71.47876739501953 264.0001220703125 L 29.99911880493164 264.0001220703125 L 29.99911880493164 301.26904296875 M 292.0002136230469 301.2666320800781 L 292.0002136230469 264.0001220703125 L 250.5214691162109 264.0001220703125 C 269.5888671875 269.0208129882813 285.0364990234375 283.0630187988281 292.0002136230469 301.2666320800781 M 292.0002136230469 177.0027465820313 L 292.0002136230469 156.0010375976563 L 29.99911880493164 156.0010375976563 L 29.99911880493164 177.0018615722656 L 292.0002136230469 177.0027465820313 M 292.0352783203125 77.00111389160156 L 292.0902404785156 29.99981307983398 L 29.99911880493164 29.90978813171387 L 29.99911880493164 77.00022888183594 L 292.0352783203125 77.00111389160156 M 291.9987487792969 1204.001342773438 L 29.99966430664063 1204.001342773438 C 25.95002746582031 1204.001342773438 22.02130126953125 1203.207885742188 18.32275581359863 1201.6435546875 C 14.75039196014404 1200.132690429688 11.54202747344971 1197.969604492188 8.78657341003418 1195.21435546875 C 6.03130054473877 1192.458618164063 3.868027925491333 1189.250366210938 2.356936931610107 1185.677978515625 C 0.7923915982246399 1181.979248046875 -0.0008811479201540351 1178.050170898438 -0.0008811479201540351 1173.999633789063 L -0.0008811479201540351 1047.9990234375 L 322.0002136230469 1047.998901367188 L 322.0002136230469 1173.999633789063 C 322.0002136230469 1178.050170898438 321.2071228027344 1181.979248046875 319.6427612304688 1185.677978515625 C 318.1318359375 1189.250366210938 315.96875 1192.458862304688 313.2136535644531 1195.21435546875 C 310.4582214355469 1197.969604492188 307.2496643066406 1200.132690429688 303.6773071289063 1201.6435546875 C 299.9783935546875 1203.207885742188 296.0491333007813 1204.001342773438 291.9987487792969 1204.001342773438 Z M 322.0002136230469 1021.001586914063 L 322.0002136230469 1021.00048828125 L -0.0008811479201540351 1021.00048828125 L -0.0008811479201540351 947.999755859375 L 322.0002136230469 947.999755859375 L 322.0002136230469 1021.00048828125 L 322.0002136230469 1021.001586914063 Z M 322.0002136230469 919.0001220703125 L 322.0002136230469 918.9990234375 L -0.0008811479201540351 918.9990234375 L -0.0008811479201540351 234.0001220703125 L 322.0002136230469 234.0001220703125 L 322.0002136230469 918.9990234375 L 322.0002136230469 919.0001220703125 Z M 87.00020599365234 291.9995727539063 C 69.90657043457031 291.9995727539063 55.99984741210938 305.9063110351563 55.99984741210938 323.0001220703125 L 55.99984741210938 465.0003051757813 C 55.99984741210938 482.0935668945313 69.90657043457031 495.9999389648438 87.00020599365234 495.9999389648438 L 235.0000305175781 495.9999389648438 C 252.0936584472656 495.9999389648438 266.0003967285156 482.0935668945313 266.0003967285156 465.0003051757813 L 266.0003967285156 323.0001220703125 C 266.0003967285156 305.9063110351563 252.0936584472656 291.9995727539063 235.0000305175781 291.9995727539063 L 87.00020599365234 291.9995727539063 Z M 322.0002136230469 207.0028533935547 L 322.0002136230469 207.0017547607422 L -0.0008811479201540351 207.0017547607422 L -0.0008811479201540351 126.0010375976563 L 322.0002136230469 126.0010375976563 L 322.0002136230469 207.0017547607422 L 322.0002136230469 207.0028533935547 Z M 322.0002136230469 107.0012130737305 L 322.0002136230469 107.000129699707 L -0.0008811479201540351 107.000129699707 L -0.0008811479201540351 28.99885368347168 C -0.0008811479201540351 25.08394432067871 0.7660279273986816 21.28612518310547 2.278209686279297 17.71085357666016 C 3.738937139511108 14.25776195526123 5.830028057098389 11.15648937225342 8.49348258972168 8.493398666381836 C 11.15711879730225 5.830307960510254 14.25839138031006 3.739216804504395 17.71184539794922 2.278853178024292 C 21.28711891174316 0.7668532133102417 25.08511924743652 0.0001259321725228801 28.99984550476074 0.0001259321725228801 L 292.9985656738281 0.0001259321725228801 C 296.9142150878906 0.0001259321725228801 300.7125854492188 0.7668532133102417 304.2882080078125 2.278853178024292 C 307.7418518066406 3.739216804504395 310.8431091308594 5.830307960510254 313.5065612792969 8.493398666381836 C 316.169677734375 11.15612602233887 318.2607421875 14.25739860534668 319.7214965820313 17.71085357666016 C 321.2334899902344 21.28594398498535 322.0002136230469 25.08376312255859 322.0002136230469 28.99885368347168 L 322.0002136230469 107.000129699707 L 322.0002136230469 107.0012130737305 Z"/></g></g></g></g></svg>