<svg xmlns="http://www.w3.org/2000/svg" xmlns:xlink="http://www.w3.org/1999/xlink" width="1647.111" height="1293.512" viewBox="0 0 1647.111 1293.512"><defs><style>.a,.b{fill:rgba(56,244,149,0.03);}.b{stroke:#38f495;stroke-width:30px;}.c,.d{stroke:none;}.d{fill:#38f495;}.e{fill:none;}.f{filter:url(#ac);}.g{filter:url(#aa);}.h{filter:url(#y);}.i{filter:url(#w);}.j{filter:url(#u);}.k{filter:url(#s);}.l{filter:url(#q);}.m{filter:url(#o);}.n{filter:url(#m);}.o{filter:url(#k);}.p{filter:url(#i);}.q{filter:url(#g);}.r{filter:url(#e);}.s{filter:url(#c);}.t{filter:url(#a);}</style><filter id="a" x="801.277" y="271.508" width="685.46" height="763.508" filterUnits="userSpaceOnUse"><feOffset dx="5" dy="5" input="SourceAlpha"/><feGaussianBlur stdDeviation="3" result="b"/><feFlood flood-opacity="0.161"/><feComposite operator="in" in2="b"/><feComposite in="SourceGraphic"/></filter><filter id="c" x="1111.781" y="824.181" width="435.98" height="292.905" filterUnits="userSpaceOnUse"><feOffset dx="5" dy="5" input="SourceAlpha"/><feGaussianBlur stdDeviation="3" result="d"/><feFlood flood-opacity="0.161"/><feComposite operator="in" in2="d"/><feComposite in="SourceGraphic"/></filter><filter id="e" x="1172.806" y="925.68" width="474.307" height="367.832" filterUnits="userSpaceOnUse"><feOffset dx="5" dy="5" input="SourceAlpha"/><feGaussianBlur stdDeviation="3" result="f"/><feFlood flood-opacity="0.161"/><feComposite operator="in" in2="f"/><feComposite in="SourceGraphic"/></filter><filter id="g" x="759.997" y="224.924" width="416.237" height="255.663" filterUnits="userSpaceOnUse"><feOffset dx="5" dy="5" input="SourceAlpha"/><feGaussianBlur stdDeviation="3" result="h"/><feFlood flood-opacity="0.161"/><feComposite operator="in" in2="h"/><feComposite in="SourceGraphic"/></filter><filter id="i" x="689.363" y="98.358" width="445.59" height="313.662" filterUnits="userSpaceOnUse"><feOffset dx="5" dy="5" input="SourceAlpha"/><feGaussianBlur stdDeviation="3" result="j"/><feFlood flood-opacity="0.161"/><feComposite operator="in" in2="j"/><feComposite in="SourceGraphic"/></filter><filter id="k" x="0" y="279" width="336" height="656" filterUnits="userSpaceOnUse"><feOffset dx="5" dy="5" input="SourceAlpha"/><feGaussianBlur stdDeviation="3" result="l"/><feFlood flood-opacity="0.161"/><feComposite operator="in" in2="l"/><feComposite in="SourceGraphic"/></filter><filter id="m" x="0" y="946" width="336" height="91" filterUnits="userSpaceOnUse"><feOffset dx="5" dy="5" input="SourceAlpha"/><feGaussianBlur stdDeviation="3" result="n"/><feFlood flood-opacity="0.161"/><feComposite operator="in" in2="n"/><feComposite in="SourceGraphic"/></filter><filter id="o" x="0" y="1048" width="336" height="174" filterUnits="userSpaceOnUse"><feOffset dx="5" dy="5" input="SourceAlpha"/><feGaussianBlur stdDeviation="3" result="p"/><feFlood flood-opacity="0.161"/><feComposite operator="in" in2="p"/><feComposite in="SourceGraphic"/></filter><filter id="q" x="0" y="143" width="336" height="130" filterUnits="userSpaceOnUse"><feOffset dx="5" dy="5" input="SourceAlpha"/><feGaussianBlur stdDeviation="3" result="r"/><feFlood flood-opacity="0.161"/><feComposite operator="in" in2="r"/><feComposite in="SourceGraphic"/></filter><filter id="s" x="367" y="234" width="340" height="703" filterUnits="userSpaceOnUse"><feOffset dx="5" dy="5" input="SourceAlpha"/><feGaussianBlur stdDeviation="3" result="t"/><feFlood flood-opacity="0.161"/><feComposite operator="in" in2="t"/><feComposite in="SourceGraphic"/></filter><filter id="u" x="367" y="948" width="340" height="91" filterUnits="userSpaceOnUse"><feOffset dx="5" dy="5" input="SourceAlpha"/><feGaussianBlur stdDeviation="3" result="v"/><feFlood flood-opacity="0.161"/><feComposite operator="in" in2="v"/><feComposite in="SourceGraphic"/></filter><filter id="w" x="367" y="1048" width="340" height="174" filterUnits="userSpaceOnUse"><feOffset dx="5" dy="5" input="SourceAlpha"/><feGaussianBlur stdDeviation="3" result="x"/><feFlood flood-opacity="0.161"/><feComposite operator="in" in2="x"/><feComposite in="SourceGraphic"/></filter><filter id="y" x="367" y="126" width="340" height="99" filterUnits="userSpaceOnUse"><feOffset dx="5" dy="5" input="SourceAlpha"/><feGaussianBlur stdDeviation="3" result="z"/><feFlood flood-opacity="0.161"/><feComposite operator="in" in2="z"/><feComposite in="SourceGraphic"/></filter><filter id="aa" x="367" y="0" width="340" height="125" filterUnits="userSpaceOnUse"><feOffset dx="5" dy="5" input="SourceAlpha"/><feGaussianBlur stdDeviation="3" result="ab"/><feFlood flood-opacity="0.161"/><feComposite operator="in" in2="ab"/><feComposite in="SourceGraphic"/></filter><filter id="ac" x="423" y="281" width="228" height="222" filterUnits="userSpaceOnUse"><feOffset dx="5" dy="5" input="SourceAlpha"/><feGaussianBlur stdDeviation="3" result="ad"/><feFlood flood-opacity="0.161"/><feComposite operator="in" in2="ad"/><feComposite in="SourceGraphic"/></filter></defs><g transform="translate(-9555 3734)"><g transform="translate(9556.474 -3739.459)"><g transform="translate(0 9)"><g transform="translate(691.89 98.817)"><g class="t" transform="matrix(1, 0, 0, 1, -693.36, -102.36)"><g class="a" transform="matrix(0.91, -0.41, 0.41, 0.91, 805.28, 461.83)"><path class="c" d="M 441.1605834960938 595.4669189453125 L 77.52446746826172 561.7948608398438 L 16.94070625305176 16.63289833068848 L 380.576904296875 50.30514526367188 L 441.1605834960938 595.4669189453125 Z"/><path class="d" d="M 33.8814697265625 33.2657470703125 L 91.08218383789063 547.9860229492188 L 424.2198181152344 578.8340454101563 L 367.0191040039063 64.1138916015625 L 33.8814697265625 33.2657470703125 M -3.0517578125e-05 0 L 394.1346435546875 36.49639892578125 L 458.101318359375 612.0997314453125 L 63.96664428710938 575.603515625 L -3.0517578125e-05 0 Z"/></g></g><g class="s" transform="matrix(1, 0, 0, 1, -693.36, -102.36)"><g class="a" transform="matrix(0.91, -0.41, 0.41, 0.91, 1115.78, 992.32)"><path class="c" d="M 386.6123657226563 104.6148529052734 L 22.97616386413574 70.94263458251953 L 16.94073867797852 16.63290214538574 L 380.5769348144531 50.30517959594727 L 386.6123657226563 104.6148529052734 Z"/><path class="d" d="M 33.88140869140625 33.26565551757813 L 36.53390502929688 57.13401031494141 L 369.6716003417969 87.98204040527344 L 367.0191040039063 64.11381530761719 L 33.88140869140625 33.26565551757813 M -3.0517578125e-05 -4.57763671875e-05 L 394.1346435546875 36.49637603759766 L 403.5530395507813 121.2477111816406 L 9.41839599609375 84.75145721435547 L -3.0517578125e-05 -4.57763671875e-05 Z"/></g></g><g class="r" transform="matrix(1, 0, 0, 1, -693.36, -102.36)"><g class="a" transform="matrix(0.91, -0.41, 0.41, 0.91, 1176.81, 1096.58)"><path class="c" d="M 389.9764099121094 185.2456665039063 C 389.5048828125 185.2456665039063 389.0245666503906 185.22265625 388.5340270996094 185.1772003173828 L 45.25548553466797 153.3900604248047 C 37.28815460205078 152.6523284912109 31.3978214263916 146.7242584228516 30.99802017211914 143.1269989013672 L 16.94074440002441 16.63289070129395 L 380.5769348144531 50.30516815185547 L 395.3162841796875 182.9368591308594 C 394.6784057617188 184.3015899658203 393.0210876464844 185.2456665039063 389.9764099121094 185.2456665039063 Z"/><path class="d" d="M 33.88143920898438 33.26571655273438 L 45.535888671875 138.1381683349609 C 45.890625 138.2965698242188 46.28207397460938 138.4209899902344 46.63858032226563 138.4540252685547 L 378.6974792480469 169.2013244628906 L 367.0191345214844 64.11381530761719 L 33.88143920898438 33.26571655273438 M 0 3.0517578125e-05 L 394.1346740722656 36.49636840820313 L 410.2244262695313 181.2801208496094 C 411.4359436035156 192.1818542480469 402.5523376464844 200.2456665039063 389.9762573242188 200.2456665039063 C 389.053466796875 200.2456665039063 388.1109313964844 200.2022552490234 387.1509094238281 200.1133575439453 L 43.87240600585938 168.3262023925781 C 29.82882690429688 167.0257873535156 17.39016723632813 156.4853668212891 16.08975219726563 144.78369140625 L 0 3.0517578125e-05 Z"/></g></g><g class="q" transform="matrix(1, 0, 0, 1, -693.36, -102.36)"><g class="a" transform="matrix(0.91, -0.41, 0.41, 0.91, 764, 391.31)"><path class="c" d="M 382.2955017089844 65.77056121826172 L 18.65937805175781 32.09821319580078 L 16.94072914123535 16.63287734985352 L 380.576904296875 50.30515289306641 L 382.2955017089844 65.77056121826172 Z"/><path class="d" d="M 0 -3.0517578125e-05 L 394.1346740722656 36.49638366699219 L 399.2361755371094 82.40346527099609 L 5.1016845703125 45.90696716308594 L 0 -3.0517578125e-05 Z"/></g></g><g class="p" transform="matrix(1, 0, 0, 1, -693.36, -102.36)"><g class="a" transform="matrix(0.91, -0.41, 0.41, 0.91, 693.36, 266.7)"><path class="c" d="M 387.1152038574219 127.1117935180664 L 23.47907447814941 93.43952178955078 L 15.0186653137207 17.30882453918457 C 15.65653228759766 15.94402503967285 17.31379890441895 14.99995899200439 20.35846519470215 14.99995899200439 C 20.82999801635742 14.99995899200439 21.31033134460449 15.02295875549316 21.80086517333984 15.06842517852783 L 365.0794067382813 46.85562515258789 C 373.0467834472656 47.59335708618164 378.9370727539063 53.52135848999023 379.3367919921875 57.11862564086914 L 387.1152038574219 127.1117935180664 Z"/><path class="d" d="M 31.63735961914063 31.04337310791016 L 37.036865234375 79.63084411621094 L 370.1744689941406 110.4790191650391 L 364.7989501953125 62.10750579833984 C 364.4441833496094 61.94905853271484 364.0527648925781 61.82466888427734 363.6962585449219 61.7916259765625 L 31.63735961914063 31.04337310791016 M 20.35842895507813 -1.52587890625e-05 C 21.28201293945313 -1.52587890625e-05 22.22305297851563 0.0433197021484375 23.18392944335938 0.132293701171875 L 366.46240234375 31.91945648193359 C 380.5059204101563 33.21987152099609 392.9446716308594 43.76020812988281 394.2450866699219 55.46195983886719 L 404.055908203125 143.7447052001953 L 9.92132568359375 107.248291015625 L 0.110504150390625 18.96554565429688 C -1.1009521484375 8.06451416015625 7.78363037109375 -1.52587890625e-05 20.35842895507813 -1.52587890625e-05 Z"/></g></g></g><g transform="translate(3 143.501)"><g class="o" transform="matrix(1, 0, 0, 1, -4.47, -147.04)"><g class="b" transform="translate(4 283)"><rect class="c" width="318" height="638"/><rect class="e" x="15" y="15" width="288" height="608"/></g></g><g class="n" transform="matrix(1, 0, 0, 1, -4.47, -147.04)"><g class="b" transform="translate(4 950)"><rect class="c" width="318" height="73"/><rect class="e" x="15" y="15" width="288" height="43"/></g></g><g class="m" transform="matrix(1, 0, 0, 1, -4.47, -147.04)"><g class="b" transform="translate(4 1052)"><path class="c" d="M1,0H317a1,1,0,0,1,1,1V126a30,30,0,0,1-30,30H30A30,30,0,0,1,0,126V1A1,1,0,0,1,1,0Z"/><path class="e" d="M29,15H289a14,14,0,0,1,14,14v97a15,15,0,0,1-15,15H30a15,15,0,0,1-15-15V29A14,14,0,0,1,29,15Z"/></g></g><g class="l" transform="matrix(1, 0, 0, 1, -4.47, -147.04)"><g class="b" transform="translate(4 147)"><path class="c" d="M30,0H288a30,30,0,0,1,30,30v82a0,0,0,0,1,0,0H0a0,0,0,0,1,0,0V30A30,30,0,0,1,30,0Z"/><rect class="e" x="15" y="15" width="288" height="82" rx="15"/></g></g></g><g transform="translate(369.221)"><g class="k" transform="matrix(1, 0, 0, 1, -370.69, -3.54)"><g class="b" transform="translate(371 238)"><rect class="c" width="322" height="685"/><rect class="e" x="15" y="15" width="292" height="655"/></g></g><g class="j" transform="matrix(1, 0, 0, 1, -370.69, -3.54)"><g class="b" transform="translate(371 952)"><rect class="c" width="322" height="73"/><rect class="e" x="15" y="15" width="292" height="43"/></g></g><g class="i" transform="matrix(1, 0, 0, 1, -370.69, -3.54)"><g class="b" transform="translate(371 1052)"><path class="c" d="M0,0H322a0,0,0,0,1,0,0V126a30,30,0,0,1-30,30H30A30,30,0,0,1,0,126V0A0,0,0,0,1,0,0Z"/><rect class="e" x="15" y="15" width="292" height="126" rx="15"/></g></g><g class="h" transform="matrix(1, 0, 0, 1, -370.69, -3.54)"><g class="b" transform="translate(371 130)"><rect class="c" width="322" height="81"/><rect class="e" x="15" y="15" width="292" height="51"/></g></g><g class="g" transform="matrix(1, 0, 0, 1, -370.69, -3.54)"><g class="b" transform="translate(371 4)"><path class="c" d="M29,0H293a29,29,0,0,1,29,29v78a0,0,0,0,1,0,0H0a0,0,0,0,1,0,0V29A29,29,0,0,1,29,0Z"/><path class="e" d="M29,15H293a14,14,0,0,1,14,14V77a15,15,0,0,1-15,15H30A15,15,0,0,1,15,77V29A14,14,0,0,1,29,15Z"/></g></g><g class="f" transform="matrix(1, 0, 0, 1, -370.69, -3.54)"><g class="b" transform="translate(427 285)"><rect class="c" width="210" height="204" rx="31"/><rect class="e" x="15" y="15" width="180" height="174" rx="16"/></g></g></g></g></g></g></svg>